<svg width="810" height="240" viewBox="0 0 176 86" fill="none" xmlns="http://www.w3.org/2000/svg">
    <path
        d="M50.4919 60.1206H52.3543L54.8808 67.7663H53.4034L52.7935 65.8737H49.8714L49.272 67.7663H47.9338L50.4919 60.1206ZM50.2029 64.8365H52.4615L51.3377 61.2863L50.2029 64.8365Z"
        fill="#707372" />
    <path
        d="M57.6542 60.1206H59.3564L62.5784 65.649V60.1206H63.8735V67.7663H62.3961L58.9492 61.9062V67.7663H57.6542V60.1206Z"
        fill="#707372" />
    <path d="M71.4325 60.1206H72.8668V67.7663H71.4325V60.1206Z" fill="#707372" />
    <path
        d="M76.282 60.1206H77.7057V63.3716H81.1416V60.1206H82.5759V67.7663H81.1416V64.5153H77.7057V67.7663H76.282V60.1206Z"
        fill="#707372" />
    <path
        d="M85.543 63.9914V63.9059C85.543 61.628 87.1275 60.0024 89.3645 60.0024C91.0021 60.0024 92.4579 60.7509 92.6617 62.5795H91.238C91.0667 61.5639 90.3816 61.1251 89.386 61.1251C87.8872 61.1251 87.0203 62.2373 87.0203 63.9159V64.0014C87.0203 65.6374 87.7805 66.7601 89.386 66.7601C90.8203 66.7601 91.4092 65.8941 91.4523 64.8354H89.5253V63.7673H92.8545V64.4733C92.8545 66.5906 91.5269 67.8739 89.365 67.8739C86.9131 67.8734 85.543 66.2478 85.543 63.9914Z"
        fill="#707372" />
    <path
        d="M99.9846 60.1206H101.408V63.3716H104.844V60.1206H106.279V67.7663H104.844V64.5153H101.408V67.7663H99.9846V60.1206Z"
        fill="#707372" />
    <path
        d="M109.245 63.9916V63.9061C109.245 61.6712 110.851 60.0137 113.12 60.0137C115.4 60.0137 116.974 61.6282 116.974 63.8741V63.9596C116.974 66.1945 115.443 67.8736 113.12 67.8736C110.776 67.8736 109.245 66.1945 109.245 63.9916ZM115.497 63.9706V63.8851C115.497 62.3131 114.619 61.1474 113.12 61.1474C111.622 61.1474 110.733 62.2491 110.733 63.8956V63.9811C110.733 65.6492 111.75 66.7293 113.142 66.7293C114.587 66.7293 115.497 65.6282 115.497 63.9706Z"
        fill="#707372" />
    <path d="M121.161 61.2433H119.03V60.1206H124.725V61.2433H122.595V67.7663H121.161V61.2433Z" fill="#707372" />
    <path
        d="M127.477 60.1206H132.262V61.2433H128.901V63.3391H131.599V64.4082H128.901V66.6431H132.444V67.7658H127.477V60.1206Z"
        fill="#707372" />
    <path d="M135.336 60.1206H136.759V66.6332H140.024V67.7669H135.336V60.1206Z" fill="#707372" />
    <path
        d="M89.877 29.8567C90.7985 29.8567 91.5046 30.5144 91.5046 31.4592C91.5046 32.7356 90.2553 33.8751 89.0038 33.8751C88.0823 33.8751 87.4051 33.2227 87.4051 32.2748C87.4046 30.9978 88.625 29.8567 89.877 29.8567ZM81.3393 30.9768C80.6379 34.3937 78.4077 45.1598 78.4077 45.1598C78.268 45.7518 77.4694 48.847 80.7125 48.847H81.2027L85.4634 28.2213C85.4634 28.2213 82.0348 27.5877 81.3393 30.9768ZM86.4027 38.1565C85.6861 41.4978 84.9554 45.1598 84.9554 45.1598C84.824 45.7518 84.0234 48.8475 87.268 48.8475H87.7472L90.5174 35.4392C90.3908 35.423 87.1088 34.8661 86.4027 38.1565ZM71.6583 45.1834C72.7752 43.7778 73.3416 41.5272 73.3416 40.0056C73.3416 38.5974 72.801 37.5917 71.3667 37.5917C70.4689 37.5917 69.6766 38.1071 69.083 38.8692C67.966 40.2754 67.396 42.5265 67.396 44.046C67.396 45.4569 67.966 46.462 69.4071 46.462C70.3029 46.462 71.0604 45.9445 71.6583 45.1834ZM71.7981 35.2057C74.8079 35.2057 76.9819 36.8044 76.9819 39.9762C76.9819 42.8299 75.8129 45.5382 73.8039 47.1632C72.5315 48.2224 70.8493 48.8475 68.9479 48.8475C65.9329 48.8475 63.7605 47.2183 63.7605 44.0465C63.7605 41.2007 64.9284 38.516 66.9379 36.8905C68.2124 35.8292 69.8957 35.2057 71.7981 35.2057ZM127.608 48.0061C126.546 48.4769 125.793 48.5378 124.409 48.6942C122.457 48.9131 121.128 49.2401 121.128 50.5906C121.128 51.6466 122.158 52.2423 123.405 52.2423C124.409 52.2423 125.332 51.8907 126.008 51.2461C126.709 50.5643 127.198 49.6212 127.47 48.5604L127.608 48.0061ZM129.802 38.1974C130.464 34.9774 133.575 35.3915 133.926 35.4419L131.547 46.8834C131.057 49.1824 130.342 50.8089 129.284 51.9993C127.989 53.4616 125.952 54.3276 123.377 54.3276C120.375 54.3276 118.123 52.9771 118.123 50.7008C118.123 49.154 119.098 48.0754 121.184 47.561C120.64 46.9601 120.344 46.1801 120.344 45.2054C120.344 44.5252 120.643 43.1516 120.698 42.9217C120.752 42.6924 121.148 40.742 121.672 38.1974C122.333 34.9863 125.465 35.3731 125.795 35.4419L124.23 43.0362C124.094 43.6865 123.339 46.1796 125.598 46.1796C128.132 46.1796 128.788 43.044 129.138 41.396C129.138 41.396 129.562 39.3663 129.802 38.1974ZM141.275 30.0872C140.739 32.5929 138.162 45.1572 138.162 45.1572C137.999 45.8788 137.287 48.847 140.469 48.847H140.961L145.372 27.4366C144.532 27.2875 141.87 27.3054 141.275 30.0872ZM153.962 35.2057C152.241 35.2057 150.772 35.9814 149.831 37.0233C149.831 37.0233 149.707 34.4152 146.26 35.4524C146.884 37.2768 146.543 37.9203 145.843 41.6012L145.113 45.1603C144.988 45.7728 144.181 48.8475 147.426 48.8475H147.905L149.186 42.664C149.541 41.0076 150.204 37.8615 152.715 37.8615C153.962 37.8615 154.6 38.6373 154.21 40.5409L153.257 45.1556C153.121 45.7476 152.301 48.848 155.564 48.848H156.046L157.792 40.4024C158.568 36.7902 156.688 35.2057 153.962 35.2057ZM60.5163 30.2425C60.355 31.0262 59.9967 32.7367 59.4157 35.54L53.427 36.7315L55.1849 28.2213C54.6411 28.1231 51.6707 27.8864 51.0623 30.9768C50.8716 31.9441 48.1229 45.1587 48.1229 45.1587C47.9853 45.8468 47.1825 48.8475 50.423 48.8475H50.921L52.6511 40.4858L58.6434 39.2954C58.0471 42.1701 57.4256 45.1587 57.4256 45.1587C57.2932 45.7545 56.4936 48.8475 59.7367 48.8475H60.2237L64.6525 27.4361C64.6525 27.4361 61.2198 26.823 60.5163 30.2425ZM168.672 35.2057C166.951 35.2057 165.482 35.9814 164.541 37.0233C164.541 37.0233 164.417 34.4152 160.97 35.4524C161.593 37.2768 161.253 37.9203 160.553 41.6012L159.823 45.1603C159.698 45.7728 158.891 48.8475 162.135 48.8475H162.615L163.896 42.664C164.251 41.0076 164.914 37.8615 167.424 37.8615C168.672 37.8615 169.31 38.6373 168.92 40.5409L167.967 45.1556C167.83 45.7476 167.01 48.848 170.274 48.848H170.756L172.502 40.4024C173.277 36.7902 171.398 35.2057 168.672 35.2057ZM102.289 31.0367C102.945 27.7132 106.138 28.1835 106.424 28.2207L102.163 48.8475H101.683C100.594 48.8475 99.6451 48.4523 99.3315 47.4666C98.576 48.2554 97.3115 48.8475 95.6807 48.8475C92.962 48.8475 91.1752 47.0309 91.1752 44.1284C91.1752 39.4083 94.8664 35.2051 100.048 35.2051C100.561 35.2051 101.079 35.2482 101.403 35.3264C101.37 35.487 101.969 32.6553 102.289 31.0367ZM100.914 37.693C100.724 37.5812 100.266 37.4862 99.8595 37.4862C97.0882 37.4862 94.8485 40.8774 94.8485 44.0208C94.8485 45.5676 95.5725 46.4058 96.7929 46.4058C97.6582 46.4058 98.2592 46.0809 98.7499 45.5377C99.2369 44.9693 99.5642 44.1289 99.7791 43.1527L100.914 37.693ZM115.208 37.6851C114.982 37.5733 114.721 37.4862 114.398 37.4862C111.248 37.4862 109.259 41.281 109.259 44.046C109.259 45.5907 109.859 46.4053 111.08 46.4053C111.95 46.4053 112.58 46.0804 113.066 45.5382C113.553 44.9698 113.855 44.1284 114.066 43.1532L115.208 37.6851ZM114.474 35.2057C116.173 35.2057 117.641 35.6985 119.02 36.4528L116.459 48.847H115.978C114.894 48.847 113.937 48.4701 113.621 47.4561C112.889 48.2449 111.601 48.847 109.971 48.847C107.257 48.847 105.602 47.0609 105.602 44.1557C105.603 39.1957 109.536 35.2057 114.474 35.2057ZM38.6279 31.2629C37.8572 27.1763 33.6217 27.9268 32.4544 28.1725C30.3056 28.6244 28.2625 29.1109 26.3144 29.63C27.3331 26.3774 28.5088 23.2167 30.3119 18.9316C29.5643 18.7348 28.7221 18.6104 27.7707 18.7275C26.6948 18.8608 25.4896 19.4119 24.7709 20.775C23.6172 22.9621 22.371 26.3989 20.9977 31.1973C18.1581 32.1195 15.5517 33.1125 13.1503 34.1617C14.4127 29.6652 16.0629 25.1287 17.8171 21.3245C17.4499 21.2064 16.7443 21.0878 16.2357 21.0878C14.2914 21.0878 13.1613 21.821 12.2797 23.7284C10.9038 26.6928 9.27357 31.6901 8.0563 36.6197C5.68689 37.8793 3.54602 39.1931 1.59586 40.5378C0.384361 41.3729 0.0880539 42.4667 0.0171293 42.9669C-0.0369835 43.3149 0.0344662 44.0455 0.269305 44.489C1.59113 43.7001 3.95738 42.3649 7.11747 40.8307C6.48545 43.961 5.74836 48.3048 5.73312 51.6172C5.72577 53.3089 6.76967 54.3009 8.26119 54.3009C8.67255 54.3009 9.48425 54.1828 9.57514 54.0893C10.0065 48.2833 11.1691 42.41 12.0454 38.5821C14.397 37.577 17.0002 36.5577 19.8019 35.6025C19.7342 35.8644 19.6669 36.1205 19.5986 36.3887C17.4373 44.8323 15.9872 53.934 16.106 56.4035C16.2021 58.4053 17.6768 59.1716 18.9282 59.1716C19.3191 59.1716 20.1208 59.0635 20.3972 58.9396C20.9257 52.7499 22.6394 43.3737 23.5546 39.7437C24.1015 37.5781 24.5833 35.7006 25.0551 33.9665C29.3079 32.7708 33.886 31.7946 38.6279 31.2629ZM175.374 36.2092C175.374 36.8049 174.981 37.2154 174.373 37.2154C173.764 37.2154 173.368 36.8049 173.368 36.2092C173.368 35.6135 173.764 35.2062 174.373 35.2062C174.981 35.2062 175.374 35.6135 175.374 36.2092ZM175.207 36.2092C175.207 35.666 174.87 35.3416 174.373 35.3416C173.876 35.3416 173.539 35.666 173.539 36.2092C173.539 36.7525 173.876 37.0768 174.373 37.0768C174.87 37.0763 175.207 36.7519 175.207 36.2092ZM174.753 36.6197C174.777 36.6197 174.808 36.6102 174.833 36.595L174.824 36.7215C174.796 36.7399 174.756 36.7551 174.719 36.7551C174.639 36.7551 174.589 36.7304 174.543 36.6475L174.37 36.3446H174.203V36.7488H174.02V35.8108H173.931V35.6718H174.363C174.611 35.6718 174.777 35.7736 174.777 35.9961C174.777 36.1594 174.7 36.2738 174.548 36.32L174.69 36.5703C174.715 36.6134 174.731 36.6197 174.753 36.6197ZM174.589 36.0024C174.589 35.8576 174.509 35.8108 174.339 35.8108H174.203V36.2087H174.364C174.534 36.2092 174.589 36.1258 174.589 36.0024ZM25.054 53.2957C25.054 53.8915 24.6616 54.3019 24.0532 54.3019C23.4443 54.3019 23.0487 53.8915 23.0487 53.2957C23.0487 52.7 23.4443 52.2927 24.0532 52.2927C24.6616 52.2927 25.054 52.7 25.054 53.2957ZM24.887 53.2957C24.887 52.7525 24.5502 52.4281 24.0532 52.4281C23.5557 52.4281 23.2189 52.7525 23.2189 53.2957C23.2189 53.839 23.5557 54.1633 24.0532 54.1633C24.5502 54.1633 24.887 53.839 24.887 53.2957ZM24.433 53.7062C24.4577 53.7062 24.4887 53.6967 24.5134 53.6815L24.504 53.808C24.4761 53.8264 24.4362 53.8416 24.3989 53.8416C24.319 53.8416 24.2697 53.8169 24.2229 53.734L24.0501 53.4312H23.8835V53.8353H23.7012V52.8974H23.6119V52.7583H24.0443C24.2917 52.7583 24.4583 52.8601 24.4583 53.0826C24.4583 53.2459 24.381 53.3603 24.2292 53.4065L24.3711 53.6569C24.3957 53.6999 24.4115 53.7062 24.433 53.7062ZM24.2691 53.0889C24.2691 52.9441 24.1888 52.8974 24.0185 52.8974H23.883V53.2952H24.0437C24.2134 53.2957 24.2691 53.2123 24.2691 53.0889Z"
        fill="#216245" />
</svg>